<svg width="353" height="450" viewBox="0 0 353 450" fill="none" xmlns="http://www.w3.org/2000/svg">
<g clip-path="url(#clip0_2046_54294)">
<rect width="353" height="497" fill="#4196FD"/>
<g filter="url(#filter0_b_2046_54294)">
<path d="M281.191 39.1567C282.259 33.5506 287.607 29.8832 293.069 31.0105L296.126 31.6414C299.632 32.365 303.266 31.1136 305.652 28.3612L307.632 26.0766C311.286 21.8597 317.56 21.4107 321.687 25.0707L324.69 27.733C327.288 30.0372 330.879 30.797 334.186 29.7425L337.712 28.6184C342.789 26.9995 348.185 29.7017 350.007 34.7751L351.617 39.2583C352.762 42.4472 355.393 44.8292 358.632 45.6096L363.032 46.6696C368.098 47.89 371.36 52.8896 370.527 58.1549L369.804 62.7285C369.271 66.0958 370.415 69.498 372.853 71.8001L376.281 75.0364C380.16 78.6988 380.537 84.8434 377.139 89.0365L374.78 91.948C372.567 94.6793 371.882 98.3719 372.968 101.713L374.222 105.574C375.947 110.882 373.148 116.655 367.951 118.509L365.136 119.513C361.743 120.723 359.228 123.688 358.543 127.287L357.945 130.424C356.876 136.03 351.529 139.698 346.066 138.57L343.009 137.94C339.503 137.216 335.869 138.467 333.484 141.22L331.504 143.504C327.849 147.721 321.576 148.17 317.448 144.51L314.446 141.848C311.847 139.544 308.256 138.784 304.949 139.838L301.424 140.963C296.346 142.581 290.95 139.879 289.128 134.806L287.518 130.323C286.373 127.134 283.742 124.752 280.503 123.971L276.103 122.911C271.038 121.691 267.775 116.691 268.608 111.426L269.331 106.852C269.864 103.485 268.721 100.083 266.282 97.7809L262.854 94.5446C258.975 90.8822 258.599 84.7376 261.996 80.5445L264.355 77.633C266.568 74.9016 267.253 71.2091 266.168 67.8675L264.913 64.0066C263.188 58.6989 265.987 52.9256 271.184 51.0722L274 50.068C277.392 48.8583 279.907 45.8927 280.593 42.2943L281.191 39.1567Z" fill="#1C7FF6"/>
<rect width="54.7837" height="57.4454" transform="matrix(0.82039 -0.562625 0.543629 0.833045 284.662 81.187)" fill="#1C7FF6"/>
<path d="M325.983 81.2444C327.377 83.3806 326.234 88.1302 323.053 90.3115C319.873 92.4927 315.508 91.5203 314.114 89.3841C312.72 87.2479 314.164 83.7441 317.344 81.5629C320.525 79.3816 324.584 79.1001 325.983 81.2444Z" fill="white"/>
<path d="M321.59 82.2262C321.573 82.4503 321.567 82.6907 321.66 82.8866C321.774 83.1152 322.009 83.2609 322.225 83.3958C323.184 83.954 324.193 84.5364 325.299 84.5691C326.955 84.625 328.532 83.3433 329.017 81.712C329.064 81.5505 329.096 81.3864 329.073 81.2254C329.026 81.01 328.858 80.842 328.735 80.6544C328.387 80.1381 328.363 79.4583 328.076 78.9115C327.34 77.516 325.174 76.9832 323.833 77.6077C322.264 78.3295 321.728 80.5975 321.59 82.2262Z" fill="white"/>
<path d="M323.176 77.1378C323.059 77.0294 322.928 76.9184 322.776 76.8813C322.596 76.839 322.414 76.9168 322.234 76.981C321.486 77.2815 320.712 77.6123 320.185 78.2334C319.394 79.1651 319.391 80.6426 320.075 81.6371C320.138 81.7349 320.216 81.8354 320.317 81.8838C320.456 81.9538 320.627 81.9307 320.785 81.9404C321.224 81.9699 321.619 82.2537 322.055 82.3324C323.163 82.529 324.443 81.5089 324.715 80.4609C325.031 79.2296 324.013 77.9208 323.179 77.1241L323.176 77.1378Z" fill="white"/>
<path d="M315.086 80.9392C315.002 81.1501 314.916 81.3747 314.942 81.593C314.973 81.8549 315.151 82.0748 315.322 82.2647C316.054 83.1195 316.827 84.0177 317.872 84.4223C319.438 85.036 321.352 84.3253 322.327 82.9252C322.424 82.788 322.515 82.6425 322.535 82.4758C322.56 82.2462 322.456 82.0339 322.395 81.8159C322.232 81.2081 322.427 80.543 322.323 79.9184C322.077 78.328 320.177 77.0941 318.701 77.2444C316.971 77.4157 315.732 79.4104 315.081 80.931L315.086 80.9392Z" fill="white"/>
<path d="M313.506 80.0754C313.308 80.1642 313.099 80.2723 312.972 80.4535C312.819 80.6649 312.804 80.9463 312.801 81.2086C312.756 82.3368 312.722 83.5169 313.208 84.5292C313.927 86.0423 315.755 86.8425 317.375 86.4863C317.528 86.4524 317.697 86.4074 317.815 86.3027C317.984 86.1513 318.049 85.9296 318.152 85.7294C318.438 85.1674 319.007 84.8245 319.349 84.2949C320.219 82.9666 319.671 80.7695 318.523 79.8686C317.179 78.8081 314.987 79.4143 313.52 80.078L313.506 80.0754Z" fill="white"/>
<path d="M315.036 81.4702C314.854 81.335 314.657 81.2108 314.432 81.1879C314.172 81.1653 313.931 81.2954 313.697 81.4201C312.705 81.9709 311.677 82.5576 311.042 83.5127C310.097 84.9399 310.332 86.9974 311.448 88.2617C311.555 88.3893 311.678 88.5058 311.833 88.5647C312.046 88.6423 312.274 88.5805 312.499 88.5679C313.118 88.5333 313.705 88.8621 314.331 88.8929C315.913 88.9767 317.525 87.3397 317.727 85.8443C317.967 84.0865 316.343 82.4381 315.036 81.4702Z" fill="white"/>
<path d="M314.569 83.5599C314.318 83.4252 314.037 83.2989 313.748 83.3202C313.411 83.3391 313.123 83.5597 312.847 83.7612C311.673 84.6602 310.462 85.6087 309.825 86.9544C308.88 88.9715 309.561 91.55 311.239 92.9603C311.399 93.0984 311.575 93.2255 311.789 93.2676C312.07 93.3228 312.359 93.195 312.649 93.1383C313.439 92.974 314.254 93.2765 315.055 93.1995C317.095 93.004 318.863 90.5875 318.85 88.6377C318.821 86.3438 316.43 84.5373 314.569 83.5599Z" fill="white"/>
<path d="M312.243 91.624C312.193 91.8702 312.155 92.1327 312.24 92.3696C312.338 92.6447 312.578 92.8341 312.807 93.0072C313.797 93.7563 314.851 94.5322 316.071 94.7225C317.906 94.9983 319.817 93.7824 320.555 92.0372C320.63 91.8673 320.687 91.6866 320.675 91.5065C320.649 91.2527 320.489 91.0436 320.372 90.8287C320.051 90.2112 320.113 89.4488 319.861 88.7952C319.225 87.1422 316.884 86.2694 315.316 86.7781C313.48 87.3762 312.595 89.8244 312.243 91.624Z" fill="white"/>
<path d="M315.755 90.2877C315.626 90.4826 315.502 90.6856 315.49 90.9179C315.478 91.1856 315.603 91.4304 315.739 91.6561C316.305 92.6487 316.898 93.6821 317.853 94.2894C319.284 95.1964 321.296 94.8673 322.529 93.6674C322.65 93.549 322.766 93.4225 322.812 93.2611C322.877 93.0394 322.819 92.8077 322.796 92.5757C322.742 91.9398 323.061 91.3202 323.077 90.6837C323.123 89.0584 321.486 87.4784 320.006 87.3365C318.267 87.172 316.684 88.9071 315.755 90.2877Z" fill="white"/>
<path d="M319.225 92.606C319.259 92.8543 319.306 93.1052 319.455 93.298C319.633 93.5179 319.919 93.6168 320.181 93.6968C321.339 94.0596 322.566 94.4218 323.766 94.1889C325.566 93.8396 326.946 92.0787 327.074 90.2206C327.083 90.0376 327.092 89.8545 327.015 89.6831C326.914 89.4571 326.698 89.3222 326.516 89.1515C326.018 88.6909 325.836 87.9658 325.396 87.453C324.277 86.1313 321.82 86.1169 320.532 87.1069C319.02 88.2734 318.983 90.8245 319.219 92.5979L319.225 92.606Z" fill="white"/>
<path d="M324.342 84.7659C324.181 84.7343 324.013 84.7083 323.855 84.7695C323.675 84.8337 323.551 85.0012 323.436 85.1632C322.946 85.8414 322.434 86.558 322.305 87.3783C322.113 88.6196 322.892 89.9029 324.02 90.3806C324.129 90.4234 324.252 90.469 324.359 90.4545C324.523 90.4369 324.657 90.3212 324.804 90.2436C325.209 90.0248 325.697 90.0567 326.12 89.8842C327.195 89.442 327.777 87.8509 327.452 86.7992C327.08 85.5675 325.492 84.9922 324.334 84.7714L324.342 84.7659Z" fill="white"/>
<path d="M322.93 85.7807C322.918 85.9775 322.912 86.1823 322.995 86.362C323.093 86.5661 323.304 86.6928 323.496 86.8088C324.337 87.2942 325.232 87.79 326.206 87.8182C327.665 87.8565 329.04 86.7128 329.45 85.2869C329.49 85.1528 329.52 85.0024 329.494 84.8551C329.449 84.6615 329.306 84.5124 329.191 84.3548C328.885 83.9038 328.858 83.3086 328.6 82.8244C327.941 81.6004 326.037 81.1476 324.863 81.7053C323.49 82.3518 323.029 84.3435 322.93 85.7807Z" fill="white"/>
<path d="M322.655 80.4462C322.54 80.6082 322.429 80.7784 322.41 80.9806C322.385 81.2102 322.494 81.4306 322.6 81.6292C323.057 82.5079 323.548 83.4218 324.362 83.9729C325.574 84.7941 327.328 84.5707 328.425 83.5712C328.535 83.472 328.64 83.3647 328.68 83.2306C328.745 83.0444 328.703 82.8372 328.688 82.6352C328.666 82.0837 328.952 81.5572 328.986 81.0025C329.072 79.5981 327.697 78.1691 326.415 78.0094C324.912 77.813 323.487 79.2739 322.65 80.4381L322.655 80.4462Z" fill="white"/>
<path d="M298.281 110.412C312.415 118.512 330.673 111.261 340.805 99.6411C347.519 91.9351 353.955 76.609 347.384 66.9843C345.625 64.4007 341.721 67.3504 343.492 69.9396C348.732 77.6209 342.141 90.7655 337.039 96.6055C328.214 106.703 312.488 112.932 300.252 105.907C297.555 104.361 295.6 108.881 298.276 110.425L298.281 110.412Z" fill="white"/>
<path d="M295.981 76.0079L295.973 76.0134C294.328 77.1419 293.876 79.4073 294.963 81.0734L297.453 84.8892C298.54 86.5553 300.755 86.9912 302.401 85.8627L302.409 85.8572C304.054 84.7288 304.507 82.4634 303.42 80.7973L300.929 76.9815C299.842 75.3154 297.627 74.8795 295.981 76.0079Z" fill="white"/>
<path d="M319.929 59.5841L319.921 59.5896C318.276 60.718 317.823 62.9835 318.91 64.6496L321.4 68.4654C322.488 70.1315 324.703 70.5673 326.348 69.4389L326.356 69.4334C328.002 68.305 328.454 66.0395 327.367 64.3734L324.877 60.5576C323.79 58.8915 321.574 58.4557 319.929 59.5841Z" fill="white"/>
</g>
<g filter="url(#filter1_b_2046_54294)">
<path d="M14.4177 240.01C18.2025 235.429 24.9613 234.763 29.5163 238.523L32.2411 240.772C35.1629 243.184 39.1502 243.861 42.7238 242.552L45.9547 241.368C51.4634 239.35 57.544 242.119 59.616 247.588L61.089 251.477C62.4011 254.94 65.4112 257.469 69.0488 258.164L72.9164 258.902C78.5312 259.974 82.2895 265.276 81.456 270.949L80.7767 275.572C80.2495 279.16 81.5643 282.762 84.2731 285.149L87.6786 288.151C91.9119 291.882 92.5027 298.28 89.0285 302.771L86.2337 306.383C84.0107 309.256 83.3787 313.05 84.5531 316.47L86.0661 320.877C87.9228 326.285 85.2025 332.225 79.8852 334.374L76.2225 335.854C72.7775 337.247 70.2845 340.317 69.6298 343.974L68.8949 348.08C67.8612 353.856 62.397 357.761 56.6183 356.856L53.2291 356.324C49.4803 355.737 45.6888 357.18 43.261 360.119L40.9969 362.859C37.2121 367.44 30.4533 368.106 25.8983 364.346L23.1735 362.097C20.2517 359.686 16.2644 359.009 12.6908 360.318L9.45987 361.501C3.95119 363.519 -2.12934 360.75 -4.20134 355.281L-5.67441 351.392C-6.98653 347.929 -9.99655 345.4 -13.6342 344.706L-17.5018 343.967C-23.1166 342.895 -26.8749 337.593 -26.0414 331.92L-25.3621 327.298C-24.8348 323.709 -26.1497 320.108 -28.8585 317.72L-32.264 314.719C-36.4973 310.988 -37.0881 304.589 -33.6139 300.099L-30.8191 296.486C-28.5961 293.613 -27.9641 289.82 -29.1385 286.399L-30.6515 281.992C-32.5082 276.585 -29.7879 270.644 -24.4706 268.495L-20.8078 267.015C-17.3629 265.623 -14.8698 262.552 -14.2152 258.895L-13.4803 254.789C-12.4466 249.014 -6.98235 245.108 -1.20372 246.014L2.18554 246.545C5.93431 247.133 9.72585 245.689 12.1536 242.751L14.4177 240.01Z" fill="#1C7FF6"/>
</g>
<path d="M8.1091 302.549C7.62115 302.095 7.34557 301.525 7.28234 300.84C7.21912 300.156 7.3855 299.542 7.78147 299.001L13.8877 291.364L11.049 288.943L10.3948 289.761C9.95863 290.306 9.40908 290.612 8.74614 290.677C8.0832 290.742 7.48766 290.55 6.95954 290.099C6.4716 289.645 6.19602 289.075 6.13279 288.391C6.06957 287.706 6.23786 287.113 6.63767 286.613L10.9992 281.159C11.4354 280.613 11.9849 280.308 12.6479 280.242C13.3108 280.177 13.9064 280.37 14.4345 280.82C14.9588 281.229 15.2535 281.786 15.3186 282.492C15.3838 283.197 15.1963 283.802 14.7563 284.306L14.1021 285.124L16.9408 287.546L23.047 279.909C23.4831 279.364 24.0327 279.058 24.6956 278.993C25.3585 278.928 25.9541 279.12 26.4822 279.571C27.0103 280.021 27.306 280.589 27.3692 281.273C27.4324 281.958 27.246 282.573 26.8098 283.119L25.332 284.898L29.425 288.389L23.2585 296.032C22.8625 296.573 22.6962 297.186 22.7594 297.871C22.8226 298.556 23.0982 299.125 23.5861 299.58C24.1143 300.03 24.7098 300.223 25.3727 300.158C26.0357 300.092 26.5852 299.787 27.0214 299.241L33.1218 291.542L37.143 294.915L30.9823 302.62C30.5461 303.166 30.3597 303.781 30.4229 304.465C30.4861 305.15 30.7818 305.718 31.3099 306.168C31.794 306.581 32.3666 306.745 33.0276 306.659C33.6886 306.573 34.2391 306.278 34.6791 305.774L40.7796 298.075L44.8065 301.51C45.8187 302.373 46.389 303.5 46.5174 304.89C46.6458 306.28 46.292 307.498 45.456 308.544L43.9352 310.515L54.1618 319.181C54.6019 319.557 54.7445 320.003 54.5896 320.521C54.4347 321.039 54.076 321.325 53.5135 321.381L51.0425 321.624C50.5604 321.672 50.0787 321.614 49.5975 321.453C49.1163 321.291 48.6996 321.059 48.3476 320.759L40.8218 314.339L39.301 316.311C38.4651 317.356 37.3741 317.945 36.0281 318.078C34.6822 318.211 33.5031 317.845 32.4908 316.982L13.0164 300.37L11.5443 302.211C11.1043 302.715 10.5529 302.999 9.88994 303.065C9.227 303.13 8.63339 302.958 8.1091 302.549Z" fill="white"/>
<path d="M185.672 102.676C185.672 86.2865 172.35 73 155.918 73C139.485 73 126.164 86.2865 126.164 102.676V143.19C126.164 159.579 139.485 172.866 155.918 172.866C172.35 172.866 185.672 159.579 185.672 143.19V102.676Z" fill="white"/>
<path d="M277.97 102.676C277.97 86.286 264.648 72.9995 248.216 72.9995C231.783 72.9995 218.462 86.286 218.462 102.676V143.189C218.462 159.579 231.783 172.865 248.216 172.865C264.648 172.865 277.97 159.579 277.97 143.189V102.676Z" fill="white"/>
<path d="M176.941 105.394C176.941 93.812 167.528 84.4229 155.917 84.4229C144.305 84.4229 134.892 93.812 134.892 105.394V134.028C134.892 145.61 144.305 154.999 155.917 154.999C167.528 154.999 176.941 145.61 176.941 134.028V105.394Z" fill="#E9ECF2"/>
<path d="M269.24 105.394C269.24 93.812 259.827 84.4229 248.215 84.4229C236.604 84.4229 227.191 93.812 227.191 105.394V134.028C227.191 145.61 236.604 154.999 248.215 154.999C259.827 154.999 269.24 145.61 269.24 134.028V105.394Z" fill="#E9ECF2"/>
<path d="M188.386 87.5503H215.76C250.102 87.5503 277.982 115.352 277.982 149.597V343.154H126.164V149.597C126.164 115.352 154.044 87.5503 188.386 87.5503Z" fill="white"/>
<path d="M211.084 153.101C211.084 156.171 206.807 160.107 202.166 160.107C197.525 160.107 193.766 156.171 193.766 153.101C193.766 150.032 197.525 147.536 202.166 147.536C206.807 147.536 211.084 150.02 211.084 153.101Z" fill="black"/>
<path d="M206.008 151.086C205.843 151.297 205.679 151.532 205.643 151.789C205.608 152.094 205.749 152.399 205.878 152.68C206.478 153.887 207.112 155.152 208.205 155.937C209.838 157.12 212.27 156.921 213.832 155.632C213.985 155.503 214.126 155.363 214.208 155.187C214.302 154.941 214.244 154.66 214.244 154.39C214.232 153.64 214.655 152.949 214.725 152.211C214.901 150.325 213.069 148.321 211.306 148.029C209.25 147.677 207.218 149.563 206.008 151.086Z" fill="black"/>
<path d="M210.955 147.115C210.908 146.927 210.85 146.728 210.72 146.588C210.568 146.424 210.333 146.377 210.11 146.318C209.158 146.107 208.159 145.908 207.219 146.166C205.809 146.553 204.834 148.017 204.87 149.47C204.87 149.61 204.881 149.763 204.952 149.88C205.046 150.044 205.234 150.138 205.387 150.255C205.809 150.583 206.021 151.133 206.409 151.508C207.396 152.457 209.358 152.317 210.321 151.461C211.449 150.454 211.284 148.462 210.967 147.103L210.955 147.115Z" fill="black"/>
<path d="M200.3 145.38C200.077 145.532 199.842 145.696 199.724 145.93C199.583 146.212 199.618 146.551 199.665 146.856C199.842 148.203 200.03 149.621 200.817 150.734C201.992 152.409 204.388 153.007 206.292 152.28C206.48 152.21 206.668 152.128 206.797 151.976C206.973 151.765 207.008 151.484 207.091 151.226C207.326 150.511 207.96 149.984 208.266 149.293C209.064 147.547 207.96 145.028 206.374 144.173C204.518 143.166 201.956 144.302 200.3 145.368V145.38Z" fill="black"/>
<path d="M199.276 143.447C199.017 143.4 198.735 143.365 198.488 143.459C198.195 143.564 197.995 143.834 197.819 144.091C197.032 145.181 196.221 146.329 196.045 147.665C195.774 149.657 197.09 151.695 198.958 152.445C199.135 152.515 199.334 152.585 199.522 152.562C199.793 152.527 200.004 152.351 200.239 152.222C200.897 151.859 201.696 151.906 202.389 151.613C204.14 150.887 205.033 148.333 204.469 146.657C203.811 144.689 201.202 143.799 199.287 143.459L199.276 143.447Z" fill="black"/>
<path d="M199.9 145.872C199.806 145.615 199.689 145.357 199.477 145.181C199.231 144.982 198.902 144.947 198.584 144.912C197.222 144.783 195.8 144.666 194.531 145.181C192.64 145.954 191.523 148.157 191.817 150.172C191.841 150.371 191.888 150.57 192.005 150.734C192.17 150.957 192.44 151.051 192.675 151.191C193.321 151.578 193.697 152.304 194.308 152.761C195.847 153.921 198.549 153.394 199.736 152.047C201.134 150.465 200.582 147.723 199.9 145.872Z" fill="black"/>
<path d="M198.055 147.631C197.891 147.326 197.691 147.01 197.385 146.834C197.033 146.623 196.598 146.646 196.187 146.658C194.413 146.752 192.568 146.869 191.041 147.771C188.762 149.13 187.751 152.153 188.515 154.695C188.586 154.941 188.68 155.187 188.867 155.375C189.114 155.621 189.49 155.691 189.819 155.832C190.724 156.206 191.346 157.062 192.204 157.53C194.389 158.725 197.761 157.53 199.03 155.586C200.511 153.289 199.289 149.868 198.055 147.631Z" fill="black"/>
<path d="M190.406 154.051C190.194 154.261 189.983 154.496 189.912 154.789C189.83 155.128 189.947 155.48 190.065 155.808C190.57 157.226 191.122 158.713 192.227 159.733C193.895 161.256 196.621 161.35 198.512 160.119C198.7 160.002 198.877 159.862 198.982 159.674C199.123 159.405 199.1 159.088 199.123 158.795C199.206 157.964 199.769 157.249 199.946 156.429C200.392 154.355 198.606 151.895 196.691 151.332C194.447 150.676 191.945 152.504 190.406 154.051Z" fill="black"/>
<path d="M194.824 155.116C194.565 155.222 194.307 155.339 194.143 155.562C193.955 155.819 193.919 156.147 193.908 156.464C193.825 157.834 193.743 159.264 194.307 160.517C195.153 162.392 197.397 163.435 199.429 163.083C199.629 163.048 199.829 163.001 199.982 162.872C200.193 162.696 200.287 162.427 200.416 162.181C200.781 161.513 201.509 161.115 201.944 160.494C203.06 158.912 202.449 156.229 201.051 155.081C199.406 153.734 196.669 154.378 194.824 155.116Z" fill="black"/>
<path d="M196.799 159.779C196.67 160.048 196.552 160.33 196.576 160.622C196.611 160.962 196.834 161.255 197.045 161.513C197.974 162.661 198.972 163.856 200.335 164.442C202.379 165.321 204.929 164.512 206.28 162.755C206.409 162.579 206.538 162.403 206.574 162.181C206.621 161.888 206.491 161.607 206.421 161.314C206.221 160.517 206.515 159.674 206.409 158.865C206.151 156.791 203.684 155.104 201.733 155.21C199.442 155.339 197.727 157.846 196.799 159.767V159.779Z" fill="black"/>
<path d="M207.113 155.48C206.972 155.339 206.819 155.199 206.619 155.152C206.396 155.093 206.161 155.175 205.938 155.257C204.998 155.597 204.011 155.96 203.342 156.686C202.331 157.788 202.272 159.592 203.095 160.834C203.177 160.951 203.271 161.08 203.389 161.138C203.565 161.232 203.776 161.209 203.976 161.232C204.528 161.291 204.998 161.654 205.539 161.771C206.913 162.064 208.546 160.881 208.91 159.615C209.345 158.139 208.123 156.487 207.101 155.48H207.113Z" fill="black"/>
<path d="M205.022 155.526C204.881 155.714 204.74 155.913 204.705 156.147C204.67 156.417 204.799 156.686 204.916 156.932C205.445 157.987 206.021 159.088 206.984 159.779C208.429 160.81 210.568 160.611 211.919 159.475C212.048 159.369 212.177 159.24 212.248 159.076C212.33 158.854 212.283 158.608 212.271 158.373C212.259 157.717 212.624 157.108 212.682 156.452C212.823 154.788 211.202 153.043 209.651 152.797C207.842 152.504 206.068 154.167 205.022 155.526Z" fill="black"/>
<path d="M208.253 150.043C208.03 150.125 207.807 150.219 207.654 150.407C207.478 150.617 207.443 150.91 207.419 151.18C207.302 152.363 207.196 153.605 207.654 154.706C208.335 156.347 210.251 157.319 212.013 157.073C212.189 157.049 212.365 157.014 212.495 156.909C212.683 156.768 212.777 156.534 212.894 156.323C213.235 155.761 213.869 155.433 214.269 154.905C215.279 153.57 214.833 151.215 213.646 150.184C212.26 148.966 209.863 149.446 208.253 150.032V150.043Z" fill="black"/>
<path d="M163.579 163.196C172.498 180.859 195.671 186.091 213.527 181.453C225.364 178.375 241.933 167.543 241.64 153.515C241.566 149.753 235.691 150.023 235.773 153.799C236.002 164.992 220.712 173.552 211.728 175.877C196.19 179.892 176.242 175.369 168.529 160.066C166.827 156.696 161.883 159.852 163.565 163.205L163.579 163.196Z" fill="black"/>
<path d="M181.642 127.479H181.63C179.229 127.479 177.283 129.419 177.283 131.813V137.296C177.283 139.69 179.229 141.631 181.63 141.631H181.642C184.043 141.631 185.989 139.69 185.989 137.296V131.813C185.989 129.419 184.043 127.479 181.642 127.479Z" fill="black"/>
<path d="M216.582 127.479H216.571C214.17 127.479 212.224 129.419 212.224 131.813V137.296C212.224 139.69 214.17 141.631 216.571 141.631H216.582C218.983 141.631 220.929 139.69 220.929 137.296V131.813C220.929 129.419 218.983 127.479 216.582 127.479Z" fill="black"/>
<path d="M126.455 215.604C126.455 215.604 131.84 241.409 94.0611 303.562C56.2819 365.716 63.5755 456.557 63.5755 456.557H277.736V285.804L126.467 215.604H126.455Z" fill="white"/>
<path d="M7.85522 125.698L5.2632 127.501C3.93277 128.426 3.60664 130.252 4.53475 131.579L66.337 219.922C67.2651 221.249 69.096 221.574 70.4264 220.648L73.0185 218.845C74.3489 217.92 74.675 216.094 73.7469 214.767L11.9447 126.424C11.0166 125.098 9.18565 124.772 7.85522 125.698Z" fill="#3D3F4D"/>
<path d="M74.2745 204.044L56.0725 216.707C54.3908 217.876 53.9786 220.184 55.1517 221.861L74.2154 249.112C75.3885 250.788 77.7028 251.2 79.3845 250.03L97.5865 237.367C99.2681 236.198 99.6804 233.89 98.5072 232.213L79.4436 204.962C78.2704 203.285 75.9562 202.874 74.2745 204.044Z" fill="#69AFEE"/>
<path d="M220.446 412.994L202.244 425.657C200.562 426.827 200.15 429.134 201.323 430.811L234.308 477.961C235.481 479.638 237.795 480.049 239.477 478.88L257.679 466.217C259.361 465.047 259.773 462.74 258.6 461.063L225.615 413.913C224.442 412.236 222.127 411.825 220.446 412.994Z" fill="#3B80D3"/>
<path d="M96.0858 213.635L57.5715 240.428C55.8899 241.598 55.4776 243.905 56.6508 245.582L75.7144 272.833C76.8876 274.51 79.2018 274.921 80.8835 273.751L119.398 246.958C121.079 245.788 121.492 243.481 120.318 241.804L101.255 214.553C100.082 212.876 97.7674 212.465 96.0858 213.635Z" fill="#3B80D3"/>
<path d="M70.5199 265.732L115.413 234.502C122.784 229.374 132.933 231.185 138.069 238.526L247.638 395.149L176.053 444.947L66.4843 288.324C61.342 280.974 63.1581 270.853 70.5199 265.732Z" fill="#E1F4FF"/>
<path d="M245.403 384.762L167.054 439.266C165.373 440.435 164.961 442.743 166.134 444.42L176.217 458.833C177.39 460.51 179.704 460.921 181.386 459.751L259.734 405.248C261.416 404.078 261.828 401.77 260.655 400.093L250.572 385.68C249.399 384.003 247.085 383.592 245.403 384.762Z" fill="#6DB2F8"/>
<path d="M278.426 431.997L200.078 486.5C198.396 487.67 197.984 489.978 199.157 491.655L209.24 506.068C210.413 507.745 212.728 508.156 214.409 506.986L292.758 452.483C294.439 451.313 294.852 449.005 293.679 447.328L283.596 432.915C282.422 431.238 280.108 430.827 278.426 431.997Z" fill="#6DB2F8"/>
<path d="M148.89 253.997L154.059 261.386L125.537 281.227C124.207 282.152 122.375 281.827 121.448 280.501L119.639 277.916C118.712 276.59 119.038 274.763 120.368 273.838L148.89 253.997Z" fill="#AAC5E2"/>
<path d="M223.348 360.46L228.518 367.85L199.996 387.691C198.666 388.616 196.834 388.291 195.906 386.965L194.098 384.38C193.17 383.054 193.497 381.227 194.826 380.302L223.348 360.46Z" fill="#AAC5E2"/>
<path d="M186.12 307.215L191.289 314.604L150.703 342.838C149.374 343.763 147.542 343.438 146.614 342.112L144.806 339.527C143.878 338.201 144.204 336.374 145.534 335.449L186.12 307.215Z" fill="#AAC5E2"/>
<path d="M167.503 280.613L172.673 288.002L152.842 301.798C151.512 302.723 149.68 302.397 148.753 301.071L146.945 298.486C146.017 297.16 146.343 295.333 147.673 294.408L167.503 280.613Z" fill="#AAC5E2"/>
<path d="M204.738 333.843L209.907 341.232L190.076 355.027C188.747 355.952 186.915 355.627 185.987 354.301L184.179 351.716C183.251 350.39 183.577 348.563 184.907 347.638L204.738 333.843Z" fill="#AAC5E2"/>
<path d="M57.2338 399.052C57.2338 399.052 -1.13423 360.518 77.7824 285.092C156.699 209.666 171.503 301.494 140.262 331.006C109.022 360.519 96.6862 425.284 96.6862 425.284L57.222 399.052H57.2338Z" fill="white"/>
<path d="M302.606 314.779C302.606 314.779 340.366 365.544 249.842 405.448C159.318 445.352 175.143 362.639 210.871 347.139C246.599 331.627 277.146 280.3 277.146 280.3L302.618 314.779H302.606Z" fill="white"/>
<g filter="url(#filter2_b_2046_54294)">
<path d="M322.986 262.243C328.129 260.285 333.929 262.933 335.99 268.179L337.261 271.416C338.582 274.78 341.53 277.219 345.026 277.841L348.321 278.427C353.732 279.389 357.464 284.565 356.722 290.076L356.206 293.903C355.734 297.406 357.078 300.938 359.759 303.243L362.579 305.667C366.732 309.236 367.437 315.458 364.179 319.778L361.686 323.083C359.616 325.827 359.076 329.476 360.251 332.769L361.642 336.668C363.478 341.813 361.063 347.457 356.143 349.518L352.415 351.08C349.266 352.399 347.017 355.268 346.446 358.696L345.758 362.825C344.858 368.222 339.929 371.872 334.578 371.103L330.944 370.58C327.489 370.084 324.055 371.435 321.865 374.154L319.473 377.123C316.026 381.4 309.808 382.034 305.477 378.548L302.84 376.426C300.041 374.174 296.31 373.564 293.012 374.819L289.839 376.027C284.696 377.985 278.896 375.337 276.836 370.091L275.565 366.854C274.244 363.49 271.295 361.051 267.799 360.429L264.504 359.843C259.093 358.881 255.361 353.705 256.104 348.194L256.619 344.367C257.091 340.864 255.748 337.332 253.066 335.027L250.246 332.603C246.093 329.034 245.388 322.812 248.647 318.492L251.14 315.187C253.209 312.443 253.75 308.794 252.574 305.501L251.183 301.602C249.347 296.457 251.762 290.813 256.682 288.752L260.41 287.19C263.559 285.871 265.808 283.002 266.379 279.574L267.067 275.445C267.967 270.048 272.896 266.398 278.248 267.167L281.882 267.69C285.337 268.186 288.77 266.835 290.96 264.116L293.353 261.147C296.799 256.87 303.017 256.236 307.348 259.722L309.986 261.844C312.784 264.096 316.515 264.706 319.813 263.451L322.986 262.243Z" fill="#90C9F6" fill-opacity="0.4"/>
<path d="M313.775 322.769C312.766 325.127 308.223 326.666 304.696 325.056C301.169 323.446 299.606 319.118 300.615 316.761C301.623 314.403 305.301 313.791 308.828 315.401C312.354 317.011 314.788 320.403 313.775 322.769Z" fill="white"/>
<path d="M310.582 319.461C310.388 319.566 310.186 319.689 310.074 319.874C309.948 320.096 309.955 320.379 309.96 320.64C310.019 321.774 310.085 322.966 310.658 323.948C311.51 325.424 313.424 326.114 315.035 325.667C315.193 325.621 315.346 325.562 315.467 325.455C315.619 325.299 315.667 325.063 315.755 324.856C315.993 324.276 316.541 323.892 316.838 323.349C317.591 321.962 316.857 319.787 315.614 318.951C314.167 317.967 312.002 318.711 310.582 319.461Z" fill="white"/>
<path d="M315.646 318.126C315.672 317.966 315.693 317.793 315.641 317.64C315.579 317.461 315.415 317.343 315.265 317.221C314.611 316.729 313.918 316.229 313.119 316.101C311.92 315.909 310.698 316.695 310.247 317.823C310.201 317.931 310.16 318.052 310.175 318.167C310.192 318.325 310.304 318.463 310.382 318.606C310.596 319.004 310.575 319.501 310.747 319.923C311.185 320.994 312.722 321.567 313.735 321.244C314.924 320.862 315.453 319.275 315.659 318.121L315.646 318.126Z" fill="white"/>
<path d="M308.118 313.098C307.899 313.137 307.666 313.182 307.5 313.321C307.3 313.488 307.216 313.761 307.151 314.011C306.842 315.107 306.519 316.261 306.752 317.389C307.094 319.084 308.719 320.374 310.404 320.476C310.57 320.488 310.74 320.49 310.888 320.418C311.091 320.317 311.211 320.113 311.358 319.944C311.771 319.476 312.427 319.292 312.886 318.867C314.067 317.803 314.055 315.485 313.131 314.278C312.052 312.86 309.732 312.845 308.122 313.089L308.118 313.098Z" fill="white"/>
<path d="M307.976 311.258C307.795 311.132 307.592 311.007 307.374 310.994C307.116 310.973 306.875 311.11 306.657 311.247C305.7 311.811 304.707 312.412 304.134 313.376C303.274 314.812 303.604 316.834 304.777 318.058C304.888 318.173 305.017 318.297 305.167 318.344C305.384 318.411 305.603 318.349 305.824 318.332C306.443 318.281 307.035 318.594 307.658 318.61C309.227 318.659 310.745 317.007 310.867 315.525C311.014 313.785 309.324 312.196 307.981 311.271L307.976 311.258Z" fill="white"/>
<path d="M307.652 313.337C307.665 313.106 307.661 312.868 307.558 312.659C307.436 312.421 307.197 312.28 306.968 312.143C305.975 311.571 304.933 310.988 303.799 310.943C302.107 310.881 300.535 312.185 300.096 313.835C300.049 313.996 300.019 314.165 300.054 314.332C300.106 314.56 300.281 314.726 300.413 314.915C300.777 315.437 300.824 316.125 301.138 316.688C301.927 318.113 304.153 318.645 305.498 318.022C307.08 317.292 307.562 314.995 307.652 313.337Z" fill="white"/>
<path d="M305.673 314.046C305.648 313.755 305.6 313.443 305.426 313.202C305.227 312.918 304.889 312.785 304.573 312.651C303.194 312.108 301.754 311.558 300.297 311.721C298.118 311.974 296.356 313.945 296.101 316.162C296.074 316.376 296.065 316.597 296.146 316.806C296.252 317.081 296.515 317.265 296.719 317.487C297.283 318.089 297.475 318.962 297.973 319.62C299.241 321.296 302.196 321.548 303.8 320.494C305.679 319.244 305.875 316.193 305.673 314.046Z" fill="white"/>
<path d="M297.749 316.324C297.519 316.413 297.281 316.52 297.132 316.72C296.957 316.952 296.931 317.263 296.913 317.556C296.831 318.82 296.761 320.154 297.266 321.32C298.033 323.069 300.074 324.086 301.915 323.798C302.097 323.773 302.277 323.726 302.419 323.619C302.615 323.461 302.701 323.21 302.815 322.993C303.151 322.383 303.814 322.029 304.218 321.461C305.238 320.023 304.69 317.514 303.419 316.417C301.93 315.135 299.427 315.671 297.749 316.324Z" fill="white"/>
<path d="M300.758 318.675C300.527 318.666 300.292 318.667 300.094 318.781C299.867 318.913 299.732 319.153 299.619 319.392C299.106 320.416 298.574 321.486 298.59 322.644C298.617 324.377 299.98 325.957 301.64 326.392C301.803 326.434 301.97 326.467 302.129 326.421C302.347 326.36 302.507 326.185 302.686 326.041C303.183 325.655 303.867 325.602 304.402 325.275C305.77 324.448 306.187 322.175 305.502 320.809C304.695 319.203 302.403 318.748 300.758 318.675Z" fill="white"/>
<path d="M300.724 322.941C300.537 323.104 300.356 323.279 300.277 323.512C300.192 323.785 300.266 324.087 300.342 324.359C300.67 325.563 301.036 326.827 301.879 327.75C303.144 329.134 305.347 329.397 306.951 328.516C307.107 328.426 307.263 328.336 307.363 328.177C307.495 327.969 307.489 327.708 307.532 327.459C307.642 326.777 308.143 326.231 308.328 325.574C308.813 323.892 307.493 321.74 305.976 321.144C304.192 320.448 302.065 321.779 300.728 322.932L300.724 322.941Z" fill="white"/>
<path d="M309.977 323.218C309.916 323.061 309.846 322.901 309.71 322.795C309.56 322.673 309.354 322.654 309.157 322.64C308.332 322.575 307.462 322.511 306.714 322.837C305.585 323.332 304.947 324.697 305.164 325.937C305.188 326.055 305.217 326.187 305.287 326.272C305.39 326.406 305.559 326.461 305.703 326.548C306.103 326.785 306.341 327.227 306.713 327.504C307.661 328.206 309.291 327.864 309.984 327.018C310.8 326.035 310.414 324.343 309.968 323.214L309.977 323.218Z" fill="white"/>
<path d="M308.372 322.528C308.203 322.623 308.031 322.727 307.927 322.895C307.812 323.09 307.821 323.342 307.83 323.571C307.885 324.565 307.961 325.61 308.465 326.475C309.225 327.768 310.915 328.357 312.316 327.953C312.448 327.917 312.589 327.863 312.697 327.761C312.832 327.619 312.877 327.414 312.945 327.23C313.152 326.722 313.629 326.38 313.889 325.897C314.543 324.668 313.885 322.765 312.787 322.038C311.508 321.185 309.613 321.847 308.372 322.528Z" fill="white"/>
<path d="M312.63 319.439C312.434 319.425 312.233 319.419 312.056 319.51C311.852 319.611 311.729 319.824 311.623 320.022C311.145 320.89 310.656 321.808 310.643 322.812C310.621 324.309 311.757 325.72 313.177 326.142C313.319 326.185 313.464 326.22 313.597 326.183C313.786 326.141 313.935 325.993 314.093 325.872C314.537 325.558 315.127 325.527 315.604 325.26C316.811 324.585 317.245 322.621 316.682 321.418C316.029 320.001 314.05 319.539 312.634 319.43L312.63 319.439Z" fill="white"/>
<path d="M274.657 314.178C275.63 330.838 291.521 342.895 306.615 345.529C316.622 347.271 332.774 344.7 337.162 333.824C338.342 330.91 333.788 329.079 332.61 332.008C329.105 340.683 314.672 341.953 307.081 340.622C293.953 338.315 280.279 327.921 279.448 313.491C279.262 310.312 274.467 311.021 274.643 314.18L274.657 314.178Z" fill="white"/>
<path d="M301.832 293.793L301.823 293.789C299.999 292.956 297.882 293.771 297.095 295.61L295.293 299.821C294.506 301.66 295.347 303.826 297.172 304.659L297.181 304.663C299.005 305.496 301.122 304.68 301.909 302.842L303.711 298.63C304.498 296.792 303.657 294.626 301.832 293.793Z" fill="white"/>
<path d="M328.387 305.916L328.378 305.911C326.554 305.079 324.437 305.894 323.65 307.733L321.848 311.944C321.061 313.783 321.902 315.948 323.727 316.781L323.736 316.785C325.56 317.618 327.677 316.803 328.464 314.964L330.266 310.753C331.053 308.914 330.211 306.748 328.387 305.916Z" fill="white"/>
</g>
<g filter="url(#filter3_b_2046_54294)">
<path d="M139.258 -20.2708C140.758 -15.2734 138.26 -9.96385 133.476 -7.98295L128.67 -5.99254C125.613 -4.72663 123.375 -2.0302 122.68 1.22364L121.537 6.58093C120.422 11.8035 115.469 15.2422 110.209 14.4457L106.29 13.8521C102.838 13.3295 99.3718 14.6343 97.1212 17.3035L94.26 20.6968C90.6554 24.9717 84.2712 25.4729 80.0123 21.8154L77.7933 19.9097C74.99 17.5023 71.1151 16.8115 67.6774 18.1065L64.7436 19.2117C59.3929 21.2272 53.4262 18.3626 51.595 12.8989L50.5909 9.90303C49.4144 6.39276 46.4374 3.79382 42.8191 3.11824L39.9551 2.58347C34.4581 1.5571 30.8117 -3.76001 31.8174 -9.28262L32.6157 -13.6663C33.2437 -17.1145 32.0567 -20.6535 29.4761 -23.0269L26.5455 -25.7221C22.6129 -29.3389 22.1255 -35.3896 25.4308 -39.5606L28.8213 -43.8391C30.8806 -46.4378 31.5374 -49.8934 30.579 -53.0871L29.0722 -58.1085C27.5725 -63.106 30.0709 -68.4155 34.8543 -70.3964L39.6607 -72.3868C42.7175 -73.6527 44.9556 -76.3492 45.6503 -79.603L46.794 -84.9603C47.9089 -90.1828 52.8617 -93.6216 58.1214 -92.8251L62.041 -92.2315C65.4924 -91.7088 68.9587 -93.0137 71.2094 -95.6829L74.0705 -99.0761C77.6751 -103.351 84.0594 -103.852 88.3182 -100.195L90.5372 -98.2891C93.3405 -95.8816 97.2154 -95.1909 100.653 -96.4858L103.587 -97.591C108.938 -99.6066 114.904 -96.7419 116.736 -91.2782L117.74 -88.2824C118.916 -84.7721 121.893 -82.1732 125.511 -81.4976L128.375 -80.9628C133.872 -79.9364 137.519 -74.6193 136.513 -69.0967L135.715 -64.7131C135.087 -61.2648 136.274 -57.7258 138.854 -55.3525L141.785 -52.6572C145.718 -49.0404 146.205 -42.9898 142.9 -38.8188L139.509 -34.5402C137.45 -31.9416 136.793 -28.4859 137.752 -25.2923L139.258 -20.2708Z" fill="#86BFFB" fill-opacity="0.6"/>
</g>
</g>
<defs>
<filter id="filter0_b_2046_54294" x="173.605" y="-62.4053" width="297.877" height="302.975" filterUnits="userSpaceOnUse" color-interpolation-filters="sRGB">
<feFlood flood-opacity="0" result="BackgroundImageFix"/>
<feGaussianBlur in="BackgroundImageFix" stdDeviation="42.5"/>
<feComposite in2="SourceAlpha" operator="in" result="effect1_backgroundBlur_2046_54294"/>
<feBlend mode="normal" in="SourceGraphic" in2="effect1_backgroundBlur_2046_54294" result="shape"/>
</filter>
<filter id="filter1_b_2046_54294" x="-124.581" y="147.381" width="304.576" height="308.108" filterUnits="userSpaceOnUse" color-interpolation-filters="sRGB">
<feFlood flood-opacity="0" result="BackgroundImageFix"/>
<feGaussianBlur in="BackgroundImageFix" stdDeviation="44.3529"/>
<feComposite in2="SourceAlpha" operator="in" result="effect1_backgroundBlur_2046_54294"/>
<feBlend mode="normal" in="SourceGraphic" in2="effect1_backgroundBlur_2046_54294" result="shape"/>
</filter>
<filter id="filter2_b_2046_54294" x="158.472" y="172.472" width="292.753" height="299.613" filterUnits="userSpaceOnUse" color-interpolation-filters="sRGB">
<feFlood flood-opacity="0" result="BackgroundImageFix"/>
<feGaussianBlur in="BackgroundImageFix" stdDeviation="42.5"/>
<feComposite in2="SourceAlpha" operator="in" result="effect1_backgroundBlur_2046_54294"/>
<feBlend mode="normal" in="SourceGraphic" in2="effect1_backgroundBlur_2046_54294" result="shape"/>
</filter>
<filter id="filter3_b_2046_54294" x="-60.7593" y="-186.641" width="289.849" height="294.903" filterUnits="userSpaceOnUse" color-interpolation-filters="sRGB">
<feFlood flood-opacity="0" result="BackgroundImageFix"/>
<feGaussianBlur in="BackgroundImageFix" stdDeviation="42"/>
<feComposite in2="SourceAlpha" operator="in" result="effect1_backgroundBlur_2046_54294"/>
<feBlend mode="normal" in="SourceGraphic" in2="effect1_backgroundBlur_2046_54294" result="shape"/>
</filter>
<clipPath id="clip0_2046_54294">
<rect width="353" height="450" rx="14" fill="white"/>
</clipPath>
</defs>
</svg>
