<svg width="339" height="320" viewBox="0 0 339 320" fill="none" xmlns="http://www.w3.org/2000/svg">
<g clip-path="url(#clip0_2046_56291)">
<path d="M176.386 26.1499C176.386 11.7077 164.681 0 150.242 0C135.803 0 124.098 11.7077 124.098 26.1499V61.8492C124.098 76.2913 135.803 87.999 150.242 87.999C164.681 87.999 176.386 76.2913 176.386 61.8492V26.1499Z" fill="white"/>
<path d="M257.487 26.1499C257.487 11.7077 245.782 0 231.343 0C216.904 0 205.199 11.7077 205.199 26.1499V61.8492C205.199 76.2913 216.904 87.999 231.343 87.999C245.782 87.999 257.487 76.2913 257.487 61.8492V26.1499Z" fill="white"/>
<path d="M168.715 28.5458C168.715 18.3399 160.444 10.0664 150.242 10.0664C140.039 10.0664 131.768 18.3399 131.768 28.5458V53.7769C131.768 63.9827 140.039 72.2562 150.242 72.2562C160.444 72.2562 168.715 63.9827 168.715 53.7769V28.5458Z" fill="#E9ECF2"/>
<path d="M249.816 28.5458C249.816 18.3399 241.545 10.0664 231.342 10.0664C221.14 10.0664 212.869 18.3399 212.869 28.5458V53.7769C212.869 63.9827 221.14 72.2562 231.342 72.2562C241.545 72.2562 249.816 63.9827 249.816 53.7769V28.5458Z" fill="#E9ECF2"/>
<path d="M178.77 12.8223H202.824C232.999 12.8223 257.496 37.3204 257.496 67.4965V238.054H124.098V67.4965C124.098 37.3204 148.595 12.8223 178.77 12.8223Z" fill="white"/>
<path d="M159.992 98.5504C158.764 98.602 156.007 98.7259 154.717 96.9192C153.602 95.3707 153.829 92.7485 155.12 91.2102C157.442 88.4435 161.489 91.2412 167.084 89.1558C172.855 87.0085 175.013 81.6299 175.787 82.146C176.53 82.6312 174.744 87.7002 171.255 91.8709C169.944 93.4401 165.887 98.3026 159.992 98.5504Z" fill="#4196FD"/>
<path d="M124.098 125.434C124.098 125.434 128.847 147.516 95.5335 200.704C62.2199 253.891 68.6514 331.628 68.6514 331.628C134.195 331.763 199.748 331.886 265.291 332.021C266.798 316.442 267.686 299.511 267.562 281.414C267.325 244.951 263.051 212.638 257.497 185.507C213.034 165.479 168.571 145.462 124.109 125.434H124.098Z" fill="white"/>
<path d="M181.547 102.163C181.547 102.163 193.171 83.88 208.884 91.0962" stroke="black" stroke-width="4.97265" stroke-linecap="round" stroke-linejoin="round"/>
<path d="M190.559 78.0776C190.559 80.7824 186.802 84.2511 182.724 84.2511C178.646 84.2511 175.343 80.7824 175.343 78.0776C175.343 75.3728 178.646 73.1738 182.724 73.1738C186.802 73.1738 190.559 75.3624 190.559 78.0776Z" fill="black"/>
<path d="M186.1 76.3122C185.955 76.4981 185.811 76.7045 185.78 76.9317C185.749 77.2001 185.873 77.4685 185.986 77.7163C186.513 78.7796 187.07 79.8946 188.03 80.5862C189.465 81.6289 191.602 81.4534 192.975 80.3178C193.109 80.2043 193.233 80.0804 193.305 79.9255C193.388 79.7087 193.336 79.461 193.336 79.2235C193.326 78.5628 193.698 77.9537 193.76 77.3033C193.915 75.6412 192.304 73.8758 190.756 73.6178C188.949 73.308 187.163 74.9702 186.1 76.3122Z" fill="black"/>
<path d="M190.445 72.8011C190.404 72.6359 190.353 72.4604 190.239 72.3365C190.105 72.192 189.898 72.1507 189.702 72.0991C188.866 71.9133 187.989 71.7378 187.163 71.9649C185.924 72.3056 185.067 73.596 185.098 74.8762C185.098 75 185.108 75.1342 185.17 75.2375C185.253 75.382 185.418 75.4646 185.552 75.5678C185.924 75.8569 186.11 76.3421 186.45 76.6725C187.318 77.5087 189.042 77.3848 189.888 76.6312C190.879 75.7434 190.735 73.9883 190.456 72.7908L190.445 72.8011Z" fill="black"/>
<path d="M181.083 71.275C180.886 71.4092 180.68 71.5537 180.577 71.7602C180.453 72.0079 180.484 72.3073 180.525 72.5757C180.68 73.763 180.845 75.0121 181.537 75.9929C182.569 77.4692 184.675 77.9957 186.348 77.3556C186.513 77.2937 186.678 77.2214 186.791 77.0872C186.946 76.9014 186.977 76.6536 187.05 76.4265C187.256 75.7967 187.813 75.3322 188.082 74.7231C188.784 73.1848 187.813 70.9652 186.42 70.2116C184.789 69.3238 182.538 70.3252 181.083 71.2646V71.275Z" fill="black"/>
<path d="M180.184 69.5807C179.957 69.5394 179.709 69.5084 179.492 69.591C179.234 69.6839 179.059 69.9213 178.904 70.1485C178.212 71.1086 177.5 72.1203 177.345 73.2972C177.107 75.0522 178.264 76.8485 179.905 77.5093C180.06 77.5712 180.235 77.6331 180.401 77.6125C180.638 77.5815 180.824 77.4267 181.03 77.3131C181.608 76.9931 182.31 77.0344 182.92 76.7763C184.458 76.1362 185.242 73.8856 184.747 72.4094C184.169 70.675 181.877 69.8904 180.194 69.591L180.184 69.5807Z" fill="black"/>
<path d="M180.731 71.7075C180.649 71.4804 180.546 71.2533 180.36 71.0984C180.143 70.9229 179.854 70.8919 179.575 70.861C178.378 70.7474 177.128 70.6442 176.014 71.0984C174.352 71.7798 173.371 73.7206 173.629 75.4963C173.65 75.6718 173.691 75.8473 173.794 75.9918C173.939 76.188 174.176 76.2706 174.382 76.3945C174.95 76.7351 175.281 77.3752 175.817 77.7778C177.17 78.7999 179.544 78.3353 180.587 77.1481C181.815 75.7544 181.33 73.3387 180.731 71.7075Z" fill="black"/>
<path d="M179.111 73.2656C178.966 72.9971 178.791 72.7184 178.522 72.5636C178.213 72.3777 177.831 72.3984 177.469 72.4087C175.91 72.4913 174.29 72.5945 172.948 73.3894C170.945 74.587 170.057 77.2505 170.728 79.4907C170.79 79.7075 170.873 79.9243 171.038 80.0895C171.255 80.3063 171.585 80.3683 171.874 80.4921C172.669 80.8225 173.216 81.5761 173.97 81.9891C175.89 83.0421 178.853 81.9891 179.968 80.2753C181.268 78.2519 180.195 75.2374 179.111 73.2656Z" fill="black"/>
<path d="M172.39 78.9125C172.205 79.0983 172.019 79.3048 171.957 79.5628C171.885 79.8622 171.988 80.1719 172.091 80.461C172.535 81.7102 173.02 83.0213 173.99 83.9194C175.456 85.2615 177.851 85.3441 179.513 84.2601C179.679 84.1569 179.833 84.033 179.926 83.8678C180.05 83.6304 180.03 83.3516 180.05 83.0935C180.123 82.3606 180.618 81.7308 180.773 81.0082C181.165 79.1809 179.596 77.0129 177.913 76.5174C175.942 75.9392 173.743 77.5497 172.39 78.9125Z" fill="black"/>
<path d="M176.272 79.8627C176.045 79.9556 175.818 80.0588 175.673 80.255C175.508 80.4821 175.477 80.7712 175.467 81.0499C175.394 82.2578 175.322 83.5173 175.818 84.6219C176.561 86.2737 178.533 87.1925 180.319 86.8828C180.494 86.8518 180.67 86.8105 180.804 86.697C180.99 86.5421 181.072 86.3047 181.186 86.0879C181.506 85.4994 182.146 85.1484 182.528 84.6013C183.509 83.2076 182.972 80.8434 181.743 79.8317C180.298 78.6445 177.893 79.2123 176.272 79.8627Z" fill="black"/>
<path d="M178.006 83.9737C177.892 84.2112 177.789 84.4589 177.81 84.717C177.841 85.0164 178.037 85.2745 178.223 85.5016C179.038 86.5133 179.916 87.5664 181.113 88.0825C182.91 88.8568 185.15 88.1445 186.337 86.5959C186.45 86.4411 186.564 86.2862 186.595 86.0901C186.636 85.832 186.523 85.5842 186.461 85.3261C186.285 84.6241 186.543 83.8808 186.45 83.1685C186.223 81.3412 184.055 79.8546 182.342 79.9475C180.329 80.0611 178.821 82.2703 178.006 83.9634V83.9737Z" fill="black"/>
<path d="M187.069 80.1835C186.946 80.0596 186.811 79.9357 186.636 79.8944C186.44 79.8428 186.233 79.9151 186.037 79.9873C185.211 80.2867 184.344 80.6068 183.756 81.2468C182.868 82.2173 182.816 83.8071 183.539 84.9014C183.611 85.0046 183.694 85.1182 183.797 85.1698C183.952 85.2524 184.138 85.2318 184.313 85.2524C184.798 85.304 185.211 85.6241 185.686 85.7273C186.894 85.9854 188.329 84.9427 188.649 83.8277C189.031 82.527 187.957 81.0713 187.059 80.1835H187.069Z" fill="black"/>
<path d="M185.233 80.2244C185.109 80.3895 184.985 80.565 184.954 80.7715C184.923 81.009 185.036 81.2464 185.14 81.4632C185.604 82.3923 186.11 83.3627 186.957 83.9718C188.226 84.8803 190.105 84.7048 191.292 83.7034C191.406 83.6105 191.52 83.497 191.582 83.3524C191.654 83.1563 191.612 82.9395 191.602 82.733C191.592 82.1549 191.912 81.6181 191.963 81.0399C192.087 79.574 190.663 78.0357 189.3 77.8189C187.71 77.5608 186.151 79.0268 185.233 80.2244Z" fill="black"/>
<path d="M188.071 75.3821C187.875 75.4544 187.679 75.537 187.545 75.7021C187.39 75.888 187.359 76.1461 187.338 76.3835C187.235 77.4262 187.142 78.5205 187.545 79.4909C188.144 80.9362 189.826 81.7931 191.375 81.5763C191.53 81.5557 191.685 81.5247 191.798 81.4318C191.963 81.3079 192.046 81.1014 192.149 80.9156C192.449 80.4201 193.006 80.131 193.357 79.6664C194.245 78.4895 193.853 76.4145 192.81 75.506C191.592 74.4323 189.486 74.8556 188.071 75.3718V75.3821Z" fill="black"/>
<path d="M164.689 55.5H164.679C162.569 55.5 160.859 57.2102 160.859 59.3198V64.1512C160.859 66.2608 162.569 67.971 164.679 67.971H164.689C166.799 67.971 168.509 66.2608 168.509 64.1512V59.3198C168.509 57.2102 166.799 55.5 164.689 55.5Z" fill="black"/>
<path d="M195.391 55.5H195.38C193.271 55.5 191.561 57.2102 191.561 59.3198V64.1512C191.561 66.2608 193.271 67.971 195.38 67.971H195.391C197.5 67.971 199.21 66.2608 199.21 64.1512V59.3198C199.21 57.2102 197.5 55.5 195.391 55.5Z" fill="black"/>
<path d="M337.968 120.756C338.185 119.858 338.165 118.918 337.906 118.041C337.648 117.153 337.153 116.358 336.482 115.728C335.883 115.233 335.181 114.882 334.417 114.727C333.653 114.562 332.869 114.593 332.125 114.809C331.878 114.882 331.609 114.902 331.351 114.861C331.093 114.82 330.845 114.717 330.639 114.562L327.346 112.115C326.737 111.661 326.262 111.041 325.993 110.339C325.725 109.627 325.673 108.853 325.828 108.109C326.055 107.108 326.2 106.096 326.272 105.074C326.427 102.844 326.2 100.614 325.622 98.4567C325.426 97.7134 325.456 96.9185 325.704 96.1958C325.952 95.4628 326.417 94.8228 327.026 94.3582L330.277 91.8289C330.453 91.6947 330.67 91.5915 330.887 91.5502C331.114 91.5089 331.341 91.5192 331.558 91.5708C332.435 91.7979 333.354 91.736 334.19 91.3953C335.026 91.0546 335.728 90.4455 336.193 89.6609C336.657 88.8867 336.843 87.9782 336.74 87.08C336.637 86.1819 336.244 85.3456 335.625 84.6849C335.109 84.1274 334.448 83.7145 333.715 83.5183C332.982 83.3222 332.208 83.3325 331.475 83.5493C330.763 83.7558 330.112 84.1481 329.606 84.6849C329.09 85.2218 328.739 85.8928 328.564 86.6154C328.512 86.8322 328.409 87.0387 328.275 87.2142C328.13 87.3897 327.955 87.5239 327.748 87.6168L323.96 89.3099C323.258 89.63 322.483 89.7332 321.73 89.6093C320.976 89.4854 320.264 89.1551 319.696 88.6389C317.569 86.6671 315.04 85.1701 312.294 84.2513C311.551 83.9932 310.901 83.5183 310.426 82.8886C309.951 82.2589 309.682 81.5052 309.641 80.7206L309.538 78.6765C309.528 78.3668 309.579 78.0571 309.703 77.7784C309.827 77.4996 310.013 77.2415 310.25 77.0454C311.107 76.3124 311.726 75.3523 312.026 74.2683C312.325 73.1843 312.305 72.0384 311.954 70.9751C311.603 69.9117 310.942 68.9723 310.054 68.2806C309.166 67.5889 308.093 67.1863 306.978 67.1037C305.852 67.0314 304.737 67.2895 303.767 67.847C302.797 68.4045 302.012 69.251 301.517 70.2524C301.021 71.2641 300.846 72.3894 300.99 73.5044C301.145 74.6193 301.62 75.662 302.373 76.4982C302.58 76.7254 302.735 77.0041 302.828 77.3035C302.91 77.6029 302.931 77.9126 302.879 78.2223L302.332 81.082C302.188 81.8046 301.847 82.4653 301.351 83.0022C300.856 83.539 300.226 83.9416 299.524 84.1481C296.468 85.1288 293.671 86.8116 291.379 89.0622C290.842 89.5783 290.161 89.919 289.428 90.0636C288.695 90.2081 287.941 90.1461 287.239 89.8777L282.883 88.2569C282.666 88.1743 282.48 88.0504 282.315 87.8853C282.16 87.7201 282.047 87.5239 281.974 87.2968C281.706 86.409 281.159 85.6244 280.405 85.0772C279.652 84.5301 278.743 84.241 277.814 84.2513C276.885 84.2616 275.987 84.592 275.254 85.1598C274.521 85.7379 274.005 86.5329 273.767 87.431C273.561 88.1847 273.561 88.9693 273.778 89.7229C273.994 90.4662 274.428 91.1372 275.016 91.6534C275.584 92.1593 276.266 92.5103 277.019 92.6651C277.762 92.82 278.537 92.7684 279.259 92.5309C279.476 92.4586 279.703 92.438 279.93 92.469C280.158 92.4999 280.374 92.5825 280.56 92.7064L284.07 95.0912C284.731 95.5351 285.237 96.1649 285.526 96.8978C285.815 97.6308 285.887 98.4361 285.712 99.2103C285.484 100.222 285.34 101.244 285.268 102.276C285.113 104.486 285.33 106.695 285.897 108.832C286.083 109.565 286.052 110.339 285.815 111.062C285.577 111.785 285.123 112.414 284.535 112.889L281.303 115.491C281.107 115.646 280.88 115.749 280.643 115.8C280.405 115.852 280.147 115.842 279.91 115.78C278.95 115.542 277.948 115.625 277.04 116.017C276.131 116.41 275.378 117.081 274.893 117.937C274.407 118.794 274.211 119.785 274.335 120.756C274.459 121.737 274.903 122.645 275.595 123.347C276.245 123.936 277.04 124.348 277.897 124.524C278.754 124.71 279.641 124.658 280.478 124.379C281.169 124.111 281.789 123.667 282.274 123.099C282.759 122.532 283.089 121.85 283.244 121.117C283.296 120.88 283.399 120.653 283.554 120.467C283.709 120.281 283.905 120.126 284.122 120.023L287.756 118.33C288.447 117.999 289.211 117.876 289.965 117.979C290.718 118.082 291.431 118.402 292.009 118.908C293.815 120.539 295.901 121.83 298.161 122.728C298.863 122.986 299.462 123.45 299.906 124.049C300.35 124.648 300.608 125.36 300.66 126.104L300.969 131.988C300.98 132.246 300.938 132.515 300.835 132.752C300.732 132.989 300.577 133.206 300.371 133.371C299.762 133.888 299.287 134.548 298.987 135.292C298.688 136.035 298.585 136.84 298.678 137.635C298.833 138.564 299.235 139.431 299.844 140.154C300.453 140.877 301.238 141.424 302.126 141.744C303.137 142.043 304.221 142.002 305.212 141.63C306.203 141.259 307.04 140.577 307.607 139.679C308.175 138.781 308.433 137.728 308.34 136.675C308.247 135.622 307.824 134.621 307.122 133.836C306.947 133.64 306.812 133.402 306.74 133.144C306.668 132.886 306.658 132.618 306.699 132.36L307.762 126.671C307.896 125.928 308.237 125.247 308.753 124.7C309.269 124.152 309.92 123.76 310.653 123.574C314.101 122.728 317.26 120.993 319.841 118.557C320.398 118.041 321.09 117.69 321.843 117.556C322.597 117.421 323.361 117.514 324.063 117.814L327.821 119.393C328.058 119.496 328.275 119.651 328.44 119.847C328.605 120.044 328.729 120.281 328.791 120.529C329.049 121.53 329.627 122.418 330.443 123.058C331.258 123.698 332.249 124.059 333.282 124.08C334.314 124.101 335.326 123.791 336.162 123.182C336.998 122.573 337.617 121.716 337.917 120.725L337.968 120.756Z" fill="#E1F4FF"/>
<path d="M305.15 107.841C306.038 108.605 307.38 108.491 308.144 107.603C308.908 106.715 308.795 105.373 307.907 104.609C307.019 103.845 305.677 103.959 304.913 104.847C304.149 105.735 304.263 107.077 305.15 107.841Z" fill="#69B4FF"/>
<path d="M299.958 96.9482C301.506 98.2696 303.829 98.0838 305.151 96.5352C306.472 94.9867 306.286 92.6638 304.738 91.3424C303.189 90.021 300.866 90.2068 299.545 91.7553C298.224 93.3039 298.409 95.6267 299.958 96.9482Z" fill="#69B4FF"/>
<path d="M315.123 103.578C316.372 104.641 318.251 104.496 319.324 103.247C320.398 101.998 320.243 100.119 318.994 99.0454C317.745 97.9718 315.866 98.1266 314.792 99.3758C313.719 100.625 313.874 102.504 315.123 103.578Z" fill="#69B4FF"/>
<path d="M301.754 118.731C302.848 119.671 304.489 119.537 305.429 118.442C306.368 117.348 306.234 115.706 305.14 114.767C304.046 113.828 302.404 113.962 301.465 115.056C300.525 116.15 300.66 117.792 301.754 118.731Z" fill="#69B4FF"/>
<path d="M292.339 107.046C293.206 107.789 294.517 107.686 295.261 106.819C296.004 105.952 295.901 104.64 295.033 103.897C294.166 103.154 292.855 103.257 292.112 104.124C291.369 104.991 291.472 106.303 292.339 107.046Z" fill="#69B4FF"/>
<path d="M107.333 94.4718C106.703 93.2227 105.764 92.1593 104.587 91.4057C103.42 90.6417 102.068 90.2081 100.664 90.1462C99.487 90.1565 98.3308 90.4559 97.2984 91.0134C96.2661 91.5709 95.3783 92.3761 94.7279 93.3569C94.5111 93.6872 94.2221 93.966 93.8917 94.1724C93.5511 94.3789 93.1691 94.4925 92.7768 94.5338L86.5828 94.957C85.4369 95.0396 84.2807 94.7919 83.2793 94.2344C82.2676 93.6769 81.4417 92.8407 80.8946 91.829C80.172 90.4559 79.3461 89.1448 78.417 87.8956C76.4039 85.1805 73.947 82.8164 71.1597 80.9065C70.1996 80.2355 69.4563 79.296 69.0331 78.212C68.5995 77.128 68.5066 75.9305 68.744 74.7846L70.0034 68.6729C70.0757 68.3323 70.2202 68.0226 70.437 67.7541C70.6538 67.4857 70.9222 67.2689 71.2423 67.1244C72.4811 66.5256 73.4824 65.5449 74.1018 64.3267C74.7316 63.1085 74.938 61.7148 74.7006 60.3727C74.4631 59.0203 73.7921 57.7918 72.7908 56.8523C71.7894 55.9129 70.5093 55.3348 69.1466 55.1902C68.0007 55.0457 66.8445 55.2315 65.8018 55.7271C64.7592 56.2226 63.8714 56.9969 63.252 57.9673C62.6326 58.9067 62.2712 59.9907 62.2093 61.116C62.1474 62.2413 62.3951 63.3563 62.9113 64.3576C63.0661 64.657 63.1487 64.9977 63.159 65.3281C63.159 65.6688 63.0971 65.9991 62.9423 66.3088L60.2375 71.9765C59.742 73.0295 58.9574 73.9174 57.9664 74.5265C56.9753 75.1356 55.8295 75.435 54.6629 75.404C50.2755 75.2285 45.888 75.9924 41.8206 77.6339C40.716 78.0675 39.4979 78.1707 38.3313 77.9023C37.1648 77.6442 36.1118 77.0351 35.2963 76.1679L33.1593 73.9174C32.8393 73.5767 32.6019 73.1637 32.4677 72.7198C32.3335 72.2759 32.3025 71.801 32.3851 71.3365C32.6535 69.6537 32.416 67.9296 31.7037 66.3914C30.9914 64.8429 29.8352 63.5524 28.3796 62.6646C26.924 61.7767 25.2413 61.3535 23.5379 61.4257C21.8346 61.5083 20.2035 62.0864 18.8305 63.0982C17.4678 64.1099 16.4355 65.5139 15.8574 67.1141C15.2896 68.7142 15.207 70.4589 15.6302 72.1004C16.0535 73.7522 16.962 75.2285 18.2317 76.3641C19.5015 77.4997 21.081 78.2223 22.7637 78.4495C23.2282 78.5011 23.6825 78.6663 24.0748 78.9244C24.467 79.1824 24.7974 79.5231 25.0348 79.9361L27.2234 83.7765C27.7602 84.7469 28.0286 85.8412 27.9873 86.9562C27.946 88.0608 27.6157 89.1448 27.0169 90.0739C24.4567 94.2137 22.8979 98.8904 22.4643 103.742C22.3404 104.868 21.9069 105.931 21.2049 106.819C20.5029 107.707 19.5738 108.378 18.5105 108.749L11.9035 111.176C11.5835 111.299 11.2325 111.341 10.8918 111.299C10.5511 111.258 10.2208 111.145 9.92141 110.959C8.74455 110.195 7.34057 109.833 5.93659 109.937C4.53261 110.04 3.2009 110.608 2.14791 111.537C1.09493 112.466 0.372294 113.725 0.0935631 115.109C-0.185168 116.492 0.000652783 117.927 0.620055 119.187C1.11558 120.26 1.90015 121.169 2.8912 121.809C3.88224 122.449 5.02814 122.8 6.21532 122.821C7.37154 122.852 8.50711 122.583 9.5188 122.026C10.5305 121.468 11.377 120.663 11.9654 119.672C12.1409 119.373 12.3887 119.125 12.6778 118.929C12.9668 118.743 13.2972 118.619 13.6482 118.588L20.0383 117.876C21.2255 117.741 22.4333 117.969 23.4966 118.526C24.56 119.083 25.4271 119.951 25.9846 121.004C26.7175 122.387 27.5537 123.719 28.4828 124.968C30.4752 127.652 32.9012 130.006 35.6576 131.905C36.597 132.566 37.33 133.485 37.7532 134.559C38.1765 135.622 38.29 136.799 38.0733 137.924L36.8964 144.098C36.8241 144.469 36.6693 144.81 36.4422 145.109C36.215 145.409 35.9157 145.646 35.5853 145.811C34.2536 146.483 33.1696 147.566 32.509 148.898C31.8483 150.24 31.6418 151.748 31.9205 153.214C32.1993 154.68 32.9529 156.011 34.0575 157.013C35.1621 158.014 36.566 158.623 38.0526 158.757C39.3843 158.799 40.6954 158.489 41.8619 157.849C43.0285 157.219 44.0092 156.28 44.6905 155.144C45.217 154.143 45.4958 153.028 45.4958 151.902C45.4958 150.777 45.2067 149.662 44.6699 148.671C44.4944 148.341 44.4015 147.99 44.3808 147.618C44.3705 147.246 44.4428 146.885 44.5976 146.544L47.1269 141.021C47.5914 139.968 48.3657 139.07 49.3361 138.44C50.3065 137.821 51.442 137.491 52.5982 137.501C56.2837 137.604 59.9588 137.047 63.4481 135.849C64.5114 135.467 65.6676 135.395 66.7619 135.653C67.8665 135.911 68.8679 136.479 69.6525 137.284L75.7949 143.757C76.0633 144.046 76.2697 144.397 76.3833 144.769C76.4968 145.151 76.5278 145.553 76.4659 145.946C76.2697 147.143 76.373 148.372 76.7653 149.518C77.1575 150.664 77.8182 151.696 78.7061 152.522C79.8003 153.441 81.1217 154.05 82.536 154.287C83.94 154.525 85.3956 154.38 86.7273 153.874C88.1932 153.224 89.4011 152.109 90.1753 150.705C90.9496 149.301 91.2489 147.69 91.0218 146.101C90.7947 144.511 90.0514 143.045 88.9159 141.919C87.7803 140.794 86.3041 140.061 84.7143 139.855C84.3116 139.803 83.9297 139.659 83.5993 139.442C83.2587 139.215 82.9799 138.926 82.7838 138.575L78.4273 130.976C77.8492 129.996 77.5705 128.87 77.6221 127.735C77.6737 126.599 78.0454 125.505 78.6957 124.576C81.834 120.209 83.7748 115.099 84.3426 109.751C84.4768 108.605 84.9311 107.521 85.664 106.633C86.397 105.745 87.3777 105.085 88.472 104.734L94.3563 102.855C94.7279 102.741 95.1305 102.71 95.5228 102.772C95.9151 102.834 96.2764 102.989 96.5965 103.216C97.8766 104.114 99.4251 104.568 100.984 104.506C102.553 104.444 104.05 103.877 105.268 102.886C106.486 101.895 107.333 100.532 107.704 99.0142C108.076 97.4967 107.942 95.8965 107.322 94.4512L107.333 94.4718Z" fill="#E1F4FF"/>
<path d="M56.8102 111.869C58.5858 111.869 60.0207 110.434 60.0207 108.658C60.0207 106.882 58.5858 105.447 56.8102 105.447C55.0346 105.447 53.5996 106.882 53.5996 108.658C53.5996 110.434 55.0346 111.869 56.8102 111.869Z" fill="#69B4FF"/>
<path d="M40.1069 104.424C43.1936 104.424 45.6919 101.926 45.6919 98.839C45.6919 95.7522 43.1936 93.2539 40.1069 93.2539C37.0202 93.2539 34.522 95.7522 34.522 98.839C34.522 101.926 37.0202 104.424 40.1069 104.424Z" fill="#69B4FF"/>
<path d="M64.109 97.1459C66.5969 97.1459 68.6203 95.1225 68.6203 92.6345C68.6203 90.1465 66.5969 88.123 64.109 88.123C61.621 88.123 59.5977 90.1465 59.5977 92.6345C59.5977 95.1225 61.621 97.1459 64.109 97.1459Z" fill="#69B4FF"/>
<path d="M63.6033 127.765C65.7815 127.765 67.5468 126 67.5468 123.811C67.5468 121.623 65.7815 119.857 63.6033 119.857C61.425 119.857 59.6494 121.623 59.6494 123.811C59.6494 126 61.4147 127.765 63.6033 127.765Z" fill="#69B4FF"/>
<path d="M41.2633 123.544C42.9976 123.544 44.4016 122.14 44.4016 120.406C44.4016 118.672 42.9976 117.268 41.2633 117.268C39.529 117.268 38.125 118.672 38.125 120.406C38.125 122.14 39.529 123.544 41.2633 123.544Z" fill="#69B4FF"/>
<path d="M242.745 135.663C252.779 133.66 261.337 134.579 268.832 138.399C270.68 139.317 271.588 141.393 271.144 143.344C271.103 143.519 271.062 143.695 270.979 143.86C267.624 153.337 262.359 160.553 255.246 165.395C257.043 215.455 246.121 263.997 222.831 309.71C227.157 318.526 228.87 327.353 227.941 336.004C227.755 338.244 225.825 339.958 223.574 339.999C213.643 340.103 205.323 336.913 198.87 330.491C163.905 333.155 130.705 325.722 100.21 308.388C91.6313 311.444 82.7428 310.773 73.8131 306.447C71.8001 305.446 70.809 303.134 71.573 300.966C74.4222 292.748 79.7387 285.501 87.409 279.368C85.8399 228.08 96.6691 179.528 119.649 135.012C115.282 127.6 113.599 118.825 114.611 108.821C114.838 106.591 116.634 104.888 118.885 104.805C127.299 104.547 135.34 107.345 143.527 113.384C174.363 111.619 206.83 118.887 242.735 135.653L242.745 135.663Z" fill="#69B4FF"/>
<path opacity="0.3" d="M144.951 141.299C144.951 141.299 179.08 173.24 235.518 161.864" stroke="white" stroke-width="2.98359" stroke-linecap="round" stroke-linejoin="round"/>
<path opacity="0.3" d="M205.198 306.635C205.198 306.635 172.783 272.959 115.829 281.373" stroke="white" stroke-width="2.98359" stroke-linecap="round" stroke-linejoin="round"/>
<path d="M266.83 152.563C263.753 152.058 260.243 158.004 256.94 163.589C256.104 165.014 255.433 166.149 254.772 167.471C249.92 177.309 252.397 193.094 247.731 196.212C233.743 205.544 220.756 211.512 210.774 215.373C202.278 209.498 192.429 210.562 188.331 214.526C183.861 218.841 186.421 223.477 188.929 226.326C185.77 228.628 182.993 231.199 180.753 234.141C164.329 255.728 171.018 277.883 196.6 283.519C222.986 289.331 250.632 269.014 275.119 250.638C278.092 248.408 281.035 246.065 281.035 246.065C283.171 244.31 287.91 240.439 290.708 237.3C296.623 230.662 297.831 223.301 298.605 219.75C298.605 219.75 306.162 185.207 268.13 153.203C267.8 152.925 267.387 152.646 266.83 152.553V152.563Z" fill="white"/>
<path d="M275.119 250.648C250.632 269.014 222.976 289.341 196.6 283.529C171.008 277.892 164.329 255.738 180.753 234.151C182.994 231.209 185.771 228.638 188.93 226.336C186.421 223.497 183.861 218.862 188.331 214.536C192.429 210.572 202.267 209.508 210.774 215.383C210.774 215.383 246.699 198.534 251.138 192.516" stroke="#E9ECF2" stroke-width="2.98359" stroke-linecap="round" stroke-linejoin="round"/>
<path d="M114.26 146.999C113.599 157.303 109.594 186.704 118.833 194.881C130.623 205.308 141.824 212.462 150.505 217.283C158.775 212.792 167.591 214.971 170.935 219.183C174.569 223.766 171.813 227.803 169.273 230.177C171.916 232.717 174.187 235.463 175.942 238.488C188.764 260.704 180.598 280.67 156.865 282.89C132.388 285.172 109.264 262.8 88.813 242.638C86.3251 240.191 83.8888 237.631 83.8888 237.631C82.1131 235.732 78.2006 231.53 75.9604 228.257C72.275 222.858 70.458 216.013 70.4787 210.851C70.5303 195.283 100.984 145.337 114.27 146.999H114.26Z" fill="white"/>
<path d="M88.8018 242.627C109.252 262.789 132.377 285.161 156.853 282.879C180.587 280.66 188.763 260.694 175.931 238.477C174.186 235.452 171.905 232.706 169.262 230.167C171.812 227.803 174.568 223.766 170.924 219.172C167.59 214.96 158.763 212.782 150.494 217.272C150.494 217.272 119.534 197.162 116.076 190.988" stroke="#E9ECF2" stroke-width="2.98359" stroke-linecap="round" stroke-linejoin="round"/>
</g>
<defs>
<clipPath id="clip0_2046_56291">
<rect width="338.111" height="340" fill="white"/>
</clipPath>
</defs>
</svg>
