<svg width="36" height="36" viewBox="0 0 36 36" fill="none" xmlns="http://www.w3.org/2000/svg">
<g id="fingerprint">
<path id="Vector" d="M4.82597 14.3091C4.64153 14.3108 4.45993 14.2636 4.29961 14.1724C4.18202 14.1063 4.07879 14.0174 3.99597 13.9109C3.91314 13.8044 3.85238 13.6825 3.81725 13.5523C3.78211 13.422 3.7733 13.2861 3.79133 13.1524C3.80936 13.0187 3.85388 12.89 3.92226 12.7737C5.24023 10.5739 9.25019 5.43945 18.0002 5.43945C21.7921 5.43945 25.1178 6.43545 27.8802 8.39873C30.1538 10.01 31.428 11.8338 32.0351 12.7122C32.112 12.8229 32.1661 12.9479 32.1941 13.0799C32.222 13.2118 32.2233 13.348 32.1978 13.4804C32.1723 13.6129 32.1206 13.7388 32.0457 13.851C31.9708 13.9631 31.8742 14.0591 31.7616 14.1334C31.5315 14.2855 31.2513 14.342 30.9802 14.291C30.7092 14.2399 30.4687 14.0853 30.3097 13.86C29.2111 12.2802 25.8615 7.47314 18.0002 7.47314C10.3269 7.47314 6.85762 11.8967 5.72763 13.7937C5.63684 13.9521 5.5054 14.0834 5.34689 14.174C5.18838 14.2646 5.00854 14.3112 4.82597 14.3091Z" fill="#6B7684"/>
<path id="Vector_2" d="M22.4083 34.4065C22.321 34.4076 22.234 34.3977 22.1492 34.3772C15.802 32.8049 13.432 26.4598 13.3356 26.1959L13.3206 26.1378C13.2686 25.9546 11.9951 21.6035 13.9502 19.0551C14.8464 17.893 16.2094 17.2969 18.0093 17.2969C19.6828 17.2969 20.89 17.8171 21.7199 18.8938C22.4035 19.7729 22.6769 20.857 22.9415 21.9016C23.4972 24.0768 23.8985 25.219 26.2084 25.3366C27.2228 25.3879 27.8893 24.7945 28.2674 24.2894C29.2893 22.9119 29.4671 20.6663 28.6967 18.6839C27.7068 16.1252 24.1938 11.3011 17.9998 11.3011C15.3556 11.3011 12.9261 12.1508 10.9779 13.7477C9.3653 15.0704 8.08767 16.938 7.47243 18.8575C6.33152 22.4313 7.8279 28.0491 7.84226 28.1004C7.8772 28.2311 7.8856 28.3676 7.86698 28.5016C7.84836 28.6357 7.80309 28.7646 7.73384 28.8809C7.66458 28.9972 7.57275 29.0984 7.46375 29.1786C7.35475 29.2588 7.2308 29.3164 7.09919 29.348C6.83332 29.4187 6.55033 29.3824 6.31086 29.2469C6.0714 29.1115 5.89452 28.8876 5.81814 28.6233C5.74978 28.367 4.15154 22.3753 5.4695 18.245C6.90505 13.7695 11.3354 9.25781 18.0018 9.25781C21.0828 9.25781 23.9935 10.3051 26.423 12.2827C28.3043 13.8208 29.841 15.8866 30.6449 17.9518C31.6669 20.5884 31.3927 23.5477 29.9483 25.4809C28.9858 26.7701 27.6152 27.4441 26.0969 27.371C22.1417 27.1728 21.4307 24.4117 20.9126 22.3979C20.3794 20.332 20.0383 19.336 18.0018 19.336C16.8835 19.336 16.098 19.6437 15.6093 20.2808C14.9427 21.1523 14.8908 22.5147 14.9646 23.5032C15.0131 24.1919 15.1299 24.8741 15.3133 25.5396C15.476 25.9498 17.5944 31.1451 22.668 32.4022C22.7992 32.4333 22.9228 32.4901 23.0318 32.5694C23.1408 32.6487 23.233 32.7488 23.3029 32.864C23.3729 32.9792 23.4193 33.1071 23.4394 33.2404C23.4595 33.3736 23.4529 33.5095 23.42 33.6402C23.3581 33.8609 23.2257 34.0552 23.043 34.1936C22.8603 34.3319 22.6374 34.4067 22.4083 34.4065Z" fill="#6B7684"/>
<path id="Vector_3" d="M14.2612 33.9375C14.119 33.9378 13.9781 33.9094 13.847 33.8541C13.716 33.7988 13.5974 33.7177 13.4984 33.6155C10.9581 30.9495 9.52121 27.9684 8.98049 24.2407V24.2209C8.67697 21.7531 9.12131 18.2593 11.2986 15.8571C12.9057 14.0846 15.165 13.1836 18.0019 13.1836C21.357 13.1836 23.9936 14.7436 25.6376 17.6878C26.8305 19.8268 27.067 21.9582 27.0732 22.0457C27.0857 22.1806 27.0714 22.3167 27.0313 22.4461C26.9911 22.5755 26.9259 22.6957 26.8392 22.7998C26.7525 22.904 26.6461 22.99 26.5262 23.053C26.4062 23.1159 26.275 23.1546 26.1401 23.1668C25.8678 23.1963 25.5948 23.1176 25.3801 22.9477C25.1653 22.7777 25.0261 22.5301 24.9923 22.2583C24.8122 20.9794 24.3984 19.7445 23.7714 18.6154C22.4972 16.3671 20.5585 15.2241 17.9944 15.2241C15.7795 15.2241 14.0466 15.8906 12.8544 17.2065C11.1359 19.1035 10.8036 22.0259 11.0395 23.9591C11.5132 27.2554 12.7799 29.8776 15.0166 32.221C15.11 32.3181 15.1828 32.433 15.2309 32.5589C15.279 32.6847 15.3012 32.8189 15.2964 32.9535C15.2916 33.0882 15.2597 33.2204 15.2027 33.3425C15.1457 33.4646 15.0648 33.5739 14.9647 33.6641C14.7719 33.8388 14.5214 33.9362 14.2612 33.9375Z" fill="#6B7684"/>
<path id="Vector_4" d="M25.9638 31.0006C23.7421 31.0006 21.8533 30.3854 20.3419 29.1625C17.3054 26.7159 16.9649 22.7312 16.9499 22.563C16.9285 22.287 17.0176 22.0138 17.1977 21.8035C17.3778 21.5932 17.634 21.463 17.91 21.4416C18.186 21.4202 18.4593 21.5093 18.6696 21.6894C18.8799 21.8695 19.0101 22.1257 19.0314 22.4017C19.039 22.4605 19.3425 25.7199 21.6831 27.597C23.0681 28.7031 24.9192 29.1419 27.2004 28.8856C27.473 28.8525 27.7477 28.9287 27.9643 29.0976C28.1809 29.2664 28.3218 29.5141 28.3563 29.7866C28.3713 29.9212 28.3593 30.0574 28.321 30.1873C28.2827 30.3172 28.2189 30.4381 28.1334 30.5431C28.0479 30.6481 27.9423 30.735 27.8229 30.7988C27.7034 30.8626 27.5724 30.9019 27.4376 30.9145C26.9484 30.9716 26.4563 31.0003 25.9638 31.0006Z" fill="#6B7684"/>
<path id="Vector_5" d="M27.7194 3.83525C26.8526 3.27129 23.7792 1.59375 18.0001 1.59375C11.9339 1.59375 8.85293 3.44697 8.17139 3.91797C8.12637 3.9456 8.08424 3.97766 8.04561 4.01367C8.04153 4.01762 8.03622 4.02003 8.03057 4.02051C7.92173 4.11553 7.83441 4.23266 7.77441 4.36409C7.71441 4.49553 7.68312 4.63824 7.68262 4.78271C7.68449 4.91815 7.71306 5.05188 7.76671 5.17625C7.82035 5.30062 7.89801 5.41318 7.99524 5.50748C8.09246 5.60178 8.20734 5.67597 8.33328 5.7258C8.45923 5.77563 8.59377 5.80011 8.7292 5.79785C8.94626 5.79771 9.15809 5.73115 9.33623 5.60713C9.36562 5.58525 12.0173 3.63701 18.0021 3.63701C23.987 3.63701 26.653 5.57842 26.6817 5.59277C26.8637 5.72774 27.0848 5.79973 27.3113 5.79785C27.4469 5.79993 27.5815 5.77522 27.7075 5.72514C27.8334 5.67506 27.9483 5.6006 28.0454 5.50603C28.1425 5.41145 28.22 5.29863 28.2734 5.17404C28.3268 5.04944 28.355 4.91553 28.3565 4.77998C28.3566 4.57694 28.296 4.37852 28.1825 4.21019C28.0689 4.04186 27.9077 3.91129 27.7194 3.83525Z" fill="#6B7684"/>
</g>
</svg>
