<svg width="70" height="70" viewBox="0 0 70 70" fill="none" xmlns="http://www.w3.org/2000/svg">
<rect x="0.4375" y="0.4375" width="69.125" height="69.125" rx="34.5625" fill="#F9FAFB"/>
<rect x="0.4375" y="0.4375" width="69.125" height="69.125" rx="34.5625" stroke="#F2F4F6" stroke-width="0.875"/>
<path d="M21.826 31.3091C21.6415 31.3108 21.4599 31.2636 21.2996 31.1724C21.182 31.1063 21.0788 31.0174 20.996 30.9109C20.9131 30.8044 20.8524 30.6825 20.8172 30.5523C20.7821 30.422 20.7733 30.2861 20.7913 30.1524C20.8094 30.0187 20.8539 29.89 20.9223 29.7737C22.2402 27.5739 26.2502 22.4395 35.0002 22.4395C38.7921 22.4395 42.1178 23.4354 44.8802 25.3987C47.1538 27.01 48.428 28.8338 49.0351 29.7122C49.112 29.8229 49.1661 29.9479 49.1941 30.0799C49.222 30.2118 49.2233 30.348 49.1978 30.4804C49.1723 30.6129 49.1206 30.7388 49.0457 30.851C48.9708 30.9631 48.8742 31.0591 48.7616 31.1334C48.5315 31.2855 48.2513 31.342 47.9802 31.291C47.7092 31.2399 47.4687 31.0853 47.3097 30.86C46.2111 29.2802 42.8615 24.4731 35.0002 24.4731C27.3269 24.4731 23.8576 28.8967 22.7276 30.7937C22.6368 30.9521 22.5054 31.0834 22.3469 31.174C22.1884 31.2646 22.0085 31.3112 21.826 31.3091Z" fill="#6B7684"/>
<path d="M39.4085 51.4065C39.3213 51.4076 39.2342 51.3977 39.1494 51.3772C32.8023 49.8049 30.4322 43.4598 30.3359 43.1959L30.3208 43.1378C30.2689 42.9546 28.9953 38.6035 30.9504 36.0551C31.8466 34.893 33.2097 34.2969 35.0096 34.2969C36.683 34.2969 37.8903 34.8171 38.7201 35.8938C39.4037 36.7729 39.6772 37.857 39.9417 38.9016C40.4975 41.0768 40.8988 42.219 43.2086 42.3366C44.2231 42.3879 44.8896 41.7945 45.2676 41.2894C46.2896 39.9119 46.4673 37.6663 45.6969 35.6839C44.7071 33.1252 41.1941 28.3011 35 28.3011C32.3559 28.3011 29.9264 29.1508 27.9781 30.7477C26.3655 32.0704 25.0879 33.938 24.4727 35.8575C23.3318 39.4313 24.8281 45.0491 24.8425 45.1004C24.8774 45.2311 24.8858 45.3676 24.8672 45.5016C24.8486 45.6357 24.8033 45.7646 24.7341 45.8809C24.6648 45.9972 24.573 46.0984 24.464 46.1786C24.355 46.2588 24.231 46.3164 24.0994 46.348C23.8336 46.4187 23.5506 46.3824 23.3111 46.2469C23.0716 46.1115 22.8948 45.8876 22.8184 45.6233C22.75 45.367 21.1518 39.3753 22.4697 35.245C23.9053 30.7695 28.3357 26.2578 35.0021 26.2578C38.083 26.2578 40.9938 27.3051 43.4233 29.2827C45.3045 30.8208 46.8412 32.8866 47.6451 34.9518C48.6671 37.5884 48.393 40.5477 46.9486 42.4809C45.9861 43.7701 44.6155 44.4441 43.0972 44.371C39.1419 44.1728 38.431 41.4117 37.9128 39.3979C37.3796 37.332 37.0385 36.336 35.0021 36.336C33.8837 36.336 33.0983 36.6437 32.6095 37.2808C31.943 38.1523 31.891 39.5147 31.9649 40.5032C32.0133 41.1919 32.1301 41.8741 32.3135 42.5396C32.4762 42.9498 34.5947 48.1451 39.6683 49.4022C39.7994 49.4333 39.9231 49.4901 40.0321 49.5694C40.1411 49.6487 40.2332 49.7488 40.3032 49.864C40.3731 49.9792 40.4195 50.1071 40.4396 50.2404C40.4597 50.3736 40.4531 50.5095 40.4202 50.6402C40.3583 50.8609 40.2259 51.0552 40.0433 51.1936C39.8606 51.3319 39.6377 51.4067 39.4085 51.4065Z" fill="#6B7684"/>
<path d="M31.2615 50.9375C31.1192 50.9378 30.9784 50.9094 30.8473 50.8541C30.7162 50.7988 30.5976 50.7177 30.4986 50.6155C27.9584 47.9495 26.5215 44.9684 25.9807 41.2407V41.2209C25.6772 38.7531 26.1216 35.2593 28.2988 32.8571C29.9059 31.0846 32.1652 30.1836 35.0021 30.1836C38.3572 30.1836 40.9938 31.7436 42.6379 34.6878C43.8307 36.8268 44.0673 38.9582 44.0734 39.0457C44.0859 39.1806 44.0717 39.3167 44.0315 39.4461C43.9914 39.5755 43.9261 39.6957 43.8394 39.7998C43.7528 39.904 43.6464 39.99 43.5264 40.053C43.4065 40.1159 43.2752 40.1546 43.1403 40.1668C42.868 40.1963 42.5951 40.1176 42.3803 39.9477C42.1656 39.7777 42.0263 39.5301 41.9925 39.2583C41.8125 37.9794 41.3986 36.7445 40.7716 35.6154C39.4974 33.3671 37.5588 32.2241 34.9946 32.2241C32.7798 32.2241 31.0468 32.8906 29.8547 34.2065C28.1361 36.1035 27.8039 39.0259 28.0397 40.9591C28.5134 44.2554 29.7801 46.8776 32.0169 49.221C32.1102 49.3181 32.1831 49.433 32.2312 49.5589C32.2792 49.6847 32.3015 49.8189 32.2966 49.9535C32.2918 50.0882 32.2599 50.2204 32.2029 50.3425C32.146 50.4646 32.065 50.5739 31.9649 50.6641C31.7722 50.8388 31.5217 50.9362 31.2615 50.9375Z" fill="#6B7684"/>
<path d="M42.9638 48.0006C40.7421 48.0006 38.8533 47.3854 37.3419 46.1625C34.3054 43.7159 33.9649 39.7312 33.9499 39.563C33.9285 39.287 34.0176 39.0138 34.1977 38.8035C34.3778 38.5932 34.634 38.463 34.91 38.4416C35.186 38.4202 35.4593 38.5093 35.6696 38.6894C35.8799 38.8695 36.0101 39.1257 36.0314 39.4017C36.039 39.4605 36.3425 42.7199 38.6831 44.597C40.0681 45.7031 41.9192 46.1419 44.2004 45.8856C44.473 45.8525 44.7477 45.9287 44.9643 46.0976C45.1809 46.2664 45.3218 46.5141 45.3563 46.7866C45.3713 46.9212 45.3593 47.0574 45.321 47.1873C45.2827 47.3172 45.2189 47.4381 45.1334 47.5431C45.0479 47.6481 44.9423 47.735 44.8229 47.7988C44.7034 47.8626 44.5724 47.9019 44.4376 47.9145C43.9484 47.9716 43.4563 48.0003 42.9638 48.0006Z" fill="#6B7684"/>
<path d="M44.7192 20.8353C43.8524 20.2713 40.779 18.5938 34.9999 18.5938C28.9336 18.5938 25.8527 20.447 25.1711 20.918C25.1261 20.9456 25.084 20.9777 25.0454 21.0137C25.0413 21.0176 25.036 21.02 25.0303 21.0205C24.9215 21.1155 24.8342 21.2327 24.7742 21.3641C24.7142 21.4955 24.6829 21.6382 24.6824 21.7827C24.6842 21.9181 24.7128 22.0519 24.7665 22.1762C24.8201 22.3006 24.8978 22.4132 24.995 22.5075C25.0922 22.6018 25.2071 22.676 25.333 22.7258C25.459 22.7756 25.5935 22.8001 25.729 22.7979C25.946 22.7977 26.1578 22.7312 26.336 22.6071C26.3654 22.5853 29.017 20.637 35.0019 20.637C40.9868 20.637 43.6528 22.5784 43.6815 22.5928C43.8635 22.7277 44.0845 22.7997 44.3111 22.7979C44.4466 22.7999 44.5812 22.7752 44.7072 22.7251C44.8332 22.6751 44.948 22.6006 45.0451 22.506C45.1422 22.4115 45.2197 22.2986 45.2731 22.174C45.3265 22.0494 45.3548 21.9155 45.3563 21.78C45.3564 21.5769 45.2957 21.3785 45.1822 21.2102C45.0687 21.0419 44.9075 20.9113 44.7192 20.8353Z" fill="#6B7684"/>
</svg>
