<svg width="81" height="80" viewBox="0 0 81 80" fill="none" xmlns="http://www.w3.org/2000/svg">
<path d="M14.7048 68.3667C8.90623 68.3667 5.28547 62.0857 8.19141 57.0678L33.2749 13.7547C36.1742 8.74842 43.4024 8.74842 46.3017 13.7547L71.3852 57.0679C74.2911 62.0857 70.6704 68.3667 64.8718 68.3667H14.7048Z" fill="#8B95A1"/>
<path d="M40.3852 56.6667C42.1842 56.6667 43.5195 55.2816 43.5195 53.471V53.396C43.5195 51.5854 42.1842 50.2002 40.3852 50.2002C38.5862 50.2002 37.2509 51.5936 37.2509 53.396V53.471C37.2509 55.2816 38.5862 56.6667 40.3852 56.6667Z" fill="white"/>
<path d="M42.0403 46.0618L43.5915 31.9274C43.6954 30.8344 43.1197 30.0083 42.1443 30H38.6182C37.6428 30 37.075 30.826 37.1789 31.9191L38.7301 46.0618C38.834 47.0714 39.4817 47.7139 40.3852 47.7139C41.2887 47.7139 41.9364 47.0797 42.0403 46.0618Z" fill="white"/>
</svg>
